<svg enable-background="new 0 0 512 512" viewBox="0 0 512 512"
    xmlns="http://www.w3.org/2000/svg">
    <g fill="#635f54">
        <path d="m433.5 180.6c-6.8 5.9-13.7 11.1-19.6 17.2-16.7 17.1-26.3 37.6-28.9 61.4-4.6 42.5 18.1 83 56.4 102.6 3.6 1.8 4.8 3.8 3.2 7.4-4.9 11.2-9.3 22.6-14.7 33.4-12.3 24.4-28 46.5-47.5 65.7-12 11.8-26.3 18.5-43.5 17.9-11.9-.4-22.9-4.8-33.6-9.6-13.6-6-27.7-9.3-42.6-8.8-13.5.4-26.1 4.3-38.6 9.1-9.4 3.6-19 7-28.8 9.2-13 3-24.8-1.3-35.6-8.6-11.5-7.8-20.5-18-29-28.8-29.9-37.6-49.8-79.8-58.9-126.9-4.3-22.3-6.5-44.8-3.8-67.4 4.2-35.9 17.8-67.5 46.1-91.1 20.1-16.8 43.8-25.5 70.1-25.8 11-.2 21.8 2.3 32.2 6.2 9.7 3.6 19.5 7.1 29.2 10.7s19.3 3.5 29 0c15.4-5.4 30.6-12.2 46.4-15.5 43.4-9 80.3 3.3 109.4 37.3 1.2 1.3 2.1 3 3.1 4.4z"/>
        <path d="m349.7 25c1.5 16.9-1 32.8-8.2 47.7-9.8 20.4-23.6 37.3-43.9 48.2-10.7 5.7-22.1 8.8-34.2 9.7-5.7.4-7-.7-7.1-6.5-.3-17.2 4.5-33 13.2-47.6 16.8-28.1 41.2-45.4 73.6-51.3.6-.1 1.2-.2 1.8-.2z"/>
    </g>
</svg>