<svg enable-background="new 0 0 512 512" viewBox="0 0 512 512"
    xmlns="http://www.w3.org/2000/svg">
    <path d="m257.1 181.1c-18.3 18.5-34.4 35-50.7 51.2-47.3 47.4-94.8 94.8-142 142.2-6.9 6.9-14.9 9.4-24 6.8-8.3-2.4-13.4-8.6-15-17.2-1.5-8.4 1.9-15 7.8-20.8 31.3-31.2 62.6-62.6 93.9-93.8 36.6-36.6 73.2-73.2 109.8-109.8 13.7-13.7 24.8-13.7 38.5 0 67.5 67.5 135 135 202.6 202.5 5.8 5.7 10 12 9 20.4-1 8.6-5.6 15.1-13.8 18.1-8 2.9-15.9 2.2-22.5-3.7-5.6-5-10.7-10.5-16-15.8-57.4-57.2-114.7-114.4-171.9-171.7-2-2-3.2-4.7-5.7-8.4z" fill="#635f54"/>
</svg>