<svg enable-background="new 0 0 512 512" viewBox="0 0 512 512"
    xmlns="http://www.w3.org/2000/svg">
    <path d="m154.2 25c7.7-.2 13.9 3 19.2 8.3 50.1 50.5 100.2 100.9 150.3 151.3 17 17.1 33.9 34.3 50.9 51.4 12.2 12.3 12.2 27.2 0 39.5-34.4 34.6-68.8 69.3-103.2 103.9-32.7 32.9-65.3 65.9-98.1 98.8-11.1 11.2-26.8 11.5-37.4.9-10.4-10.4-10-26.5.9-37.5 38.4-38.7 76.8-77.4 115.2-116 21.8-22 43.5-44 65.5-65.8 3.2-3.1 3-5 0-8-32.5-32.6-65-65.2-97.5-97.9-28-28.2-56-56.5-83.9-84.8-7.7-7.8-10.1-19.4-5.8-28.5 4.7-10 12.6-15.5 23.9-15.6z" fill="#635f54"/>
</svg>