<svg enable-background="new 0 0 512 512" viewBox="0 0 512 512"
    xmlns="http://www.w3.org/2000/svg">
    <path d="m348 25c10 0 18.3 5.7 21.8 16.1 3.6 10.6 1.7 20.2-5.6 28.4-22.4 25-44.8 49.9-67.2 74.9-32 35.7-64 71.4-96.1 107-2.9 3.2-3.3 5.2-.1 8.8 54.7 60.7 109.2 121.5 163.8 182.3 9.6 10.7 9.4 26.6-.1 37.1-9.2 10.1-23.5 9.9-33.1-.7-50.7-56.4-101.4-113-152.1-169.4-10-11.1-19.9-22.2-29.9-33.3-11.6-12.8-11.6-27.5-.1-40.3 43.3-48.2 86.6-96.5 129.9-144.7 17.4-19.4 34.7-38.7 52-58.1 4.5-5.3 10-8.4 16.8-8.1z" fill="#635f54"/>
</svg>