<svg enable-background="new 0 0 512 512" viewBox="0 0 512 512"
    xmlns="http://www.w3.org/2000/svg">
    <path d="m255.5 329.2c2.9-2.7 4.8-4.3 6.6-6.1 59.8-59.8 119.6-119.6 179.3-179.4 2.7-2.7 5.4-5.6 8.4-8.1 9.9-8.4 22.2-8 30.7.7 8.8 9.1 8.8 21.7-.5 31.2-15.9 16.2-32.1 32.2-48.2 48.3-52.7 52.7-105.3 105.3-158 158-11.6 11.5-23.9 11.6-35.3.2-68.5-68.3-136.9-136.7-205.3-205.1-10.5-10.5-11-23.4-1.4-32.9 9.1-9.1 22-8.8 32.4 1.5 44.2 43.9 88.2 88 132.3 132.1 19.5 19.6 38.9 39.3 59 59.6z" fill="#635f54"/>
</svg>