<svg enable-background="new 0 0 512 512" viewBox="0 0 512 512"
    xmlns="http://www.w3.org/2000/svg">
    <path d="m159 139.7c0-6.3.1-12.3 0-18.3-.1-10.5 1.4-20.8 5.1-30.7 13.4-35.9 38.7-58.1 76.6-64.4 47.9-7.9 93.2 20.4 107.8 66.3 2.9 9.2 4.5 18.6 4.4 28.3-.1 6.1 0 12.2 0 18.6 1.2.1 2.2.1 3.1.1 19.9 0 39.8.2 59.7-.1 7.7-.1 13.2 2.7 14.3 13.1 1.5 15.3 3.5 30.6 5.3 45.8 1.7 14.8 3.4 29.6 5.1 44.4s3.6 29.6 5.3 44.4c1.6 13.4 3.1 26.8 4.6 40.2 1.7 14.8 3.6 29.6 5.3 44.4 1.6 13.5 3.1 27 4.7 40.4.9 7.6 1.9 15.3 2.6 22.9 2 24.2-16.7 47.6-40.6 51.1-3.1.5-6.3.7-9.4.7-104.6 0-209.2-.1-313.9.1-24.4 0-44.5-16.9-49.2-39.1-1.5-7.2-1-14.3-.1-21.5 1.3-10.7 2.5-21.4 3.8-32 1.3-10.7 2.6-21.4 3.8-32s2.4-21.2 3.7-31.8c1.2-10.5 2.5-21 3.8-31.5 1.2-10.5 2.4-21 3.7-31.6 1.2-10.5 2.5-21 3.7-31.6 1.2-10.5 2.5-21 3.7-31.5 1.4-12 2.8-24 4.2-36 .7-6.2 1.5-12.3 2.2-18.5.7-6.3 5.1-10.3 11.6-10.3h61.7c1 .1 2 .1 3.4.1zm-55.8 22.3c-.2 1.1-.4 2.2-.5 3.3-.7 6.3-1.4 12.7-2.2 19-1.3 10.8-2.6 21.7-3.9 32.5-1.2 10.3-2.4 20.7-3.7 31-1.3 10.7-2.5 21.4-3.8 32-1.2 10.6-2.5 21.2-3.7 31.8s-2.5 21.2-3.7 31.8c-1.1 9-2.1 18.1-3.2 27.1-1.3 10.7-2.5 21.4-3.8 32-1.2 10.4-2.1 20.9-3.7 31.3-2.4 16 10.4 31.2 26.7 31.2h316.4c12.8 0 24.6-9.7 26.3-22.3.7-4.7.1-9.7-.4-14.5-1.1-10.6-2.4-21.2-3.7-31.8-1.3-10.7-2.5-21.4-3.8-32-1.1-9.1-2.1-18.2-3.2-27.4-1.2-10.5-2.5-21-3.7-31.5-1.1-9.1-2.1-18.2-3.2-27.4-1.2-10.6-2.5-21.2-3.8-31.8-1.4-11.9-2.7-23.8-4.1-35.7-1.4-12.3-2.9-24.6-4.4-37-.5-3.9-1-7.8-1.5-11.6-18.8 0-37.1 0-55.8 0v3.1 23.6c0 1.2-.1 2.5-.4 3.7-1.5 5-6.6 8.3-11.5 7.6-5.8-.8-9.8-4.9-9.9-10.6-.1-8.1 0-16.2 0-24.4 0-1 0-1.9 0-3-50.2 0-100.1 0-150.3 0v3 23.6c0 6.5-4.9 11.5-10.9 11.4-6.2-.1-10.9-4.9-10.9-11.4 0-7.9 0-15.8 0-23.6 0-1 0-1.9 0-3-18.6 0-37 0-55.7 0zm227.9-22.3c0-4.7-.1-9 0-13.3.2-8.2-.5-16.4-2.7-24.3-13.1-47.2-66.8-69.6-109.4-45.3-21.1 12-33.7 30.3-37.1 54.4-1.2 8.3-.8 16.8-1 25.3-.1 3.3 0 3.3 3.2 3.3h143.9c.9-.1 1.8-.1 3.1-.1z" fill="#635f54"/>
</svg>