<svg enable-background="new 0 0 512 512" viewBox="0 0 512 512"
    xmlns="http://www.w3.org/2000/svg">
    <path d="m233 255.6c-4.8-4.6-9.6-9.1-14.2-13.7-62.4-62.3-124.7-124.8-187.3-187.1-7.4-7.3-7.5-15-5.1-20.4 4.7-10.3 18.3-12.7 26.6-4.4 17.5 17.3 34.9 34.8 52.3 52.3l147.7 147.7c.9.9 1.8 1.7 3.3 3.1 3.6-3.7 6.9-7.4 10.5-11 63.6-63.6 127.3-127.2 190.7-191 8-8 18.8-6.9 24.1-1.9 6.9 6.6 7.1 17 .1 24-19.3 19.4-38.7 38.7-58 58.1-47.2 47.2-94.5 94.5-141.7 141.7-.9.9-1.7 1.8-2.8 2.9 1 1.1 1.8 2 2.7 3 66.2 66.1 132.2 132.2 198.4 198.1 7.6 7.6 7.6 15.4 5.2 20.7-4.8 10.4-18.3 12.6-26.6 4.3-17.4-17.3-34.7-34.7-52.1-52-49.2-49.2-98.5-98.5-147.7-147.7-.9-.9-1.9-1.8-3.4-3.2-6.6 6.7-12.9 13.2-19.3 19.6-60.5 60.5-121 120.9-181.3 181.5-7.6 7.6-15.3 7.7-20.7 5.2-10.4-4.7-12.6-18.3-4.4-26.6 17.4-17.5 34.8-34.9 52.3-52.3l147.7-147.7c.8-.8 1.6-1.7 3-3.2z" fill="#635f54"/>
</svg>