<svg enable-background="new 0 0 512 512" viewBox="0 0 512 512"
    xmlns="http://www.w3.org/2000/svg">
    <g fill="#635f54">
        <path d="m280.5 140.7c-7.3 7.8-14.2 15.4-21.3 22.9-4.9 5.1-10.1 9.9-15.1 15-1.6 1.6-2.8 1.9-4.9.9-7.3-3.8-14.5-7.5-22-10.9-14.4-6.5-29.5-9.7-45.4-8.9-22.4 1.1-41.4 9.8-57.6 25.2-16.7 16-27.8 35.2-30.5 58.2-4.3 36.2 7.3 66.6 36.5 89.2 14.1 10.9 30.1 18.1 48 20.5 16.5 2.2 32.3-.9 47.7-6.9 25.4-9.8 40.5-28.6 48.5-53.9 1.1-3.6.6-4.2-3.1-4.3-26.7-.4-53.4-.8-80.1-1.2-.6 0-1.2-.1-2-.2 0-17 0-33.9 0-51.2h3.3 137.8c3.7 0 4.2.4 4.2 4.2-.1 12.9.6 26-.8 38.8-5.2 48.8-26.1 88.2-70.3 112.7-17.7 9.9-37 15.7-57.2 17.8-56.3 5.7-102.2-14.8-138.6-57.1-15.7-18.2-24.7-40-29.1-63.6-2-11.1-3.6-22.4-3.6-33.7-.1-34.7 10.6-66 32.3-93.2 19.4-24.2 43.9-41.4 73.6-50.7 18.3-5.7 37-8.6 56.2-7.6 26 1.3 49.9 9.3 71.9 23.2 7.2 4.5 14.1 9.6 21.6 14.8z"/>
        <path d="m400.8 321.5c-.2-4.6-.6-8.9-.7-13.3-.1-8.8-.1-17.6-.1-26.4 0-2.4-.8-3.3-3.3-3.4-12.1-.1-24.3-.4-36.4-.5-2.8 0-3.8-.9-3.8-3.6 0-12.1-.1-24.3-.2-36.4 0-2.4 1-3.3 3.5-3.3 12.2.1 24.5 0 36.7.1 2.6 0 3.4-.7 3.5-3.4.1-12.2.3-24.5.5-36.7 0-1 .1-2 .1-3.2h43.1v42.9h43.2v43.4c-1.1.1-2.3.2-3.5.2-12.1 0-24.3.1-36.4 0-2.5 0-3.3.7-3.3 3.2.1 12.3 0 24.7.1 37 0 2-.4 3.3-2.8 3.3-13.2.1-26.5.1-40.2.1z"/>
    </g>
</svg>