<svg enable-background="new 0 0 512 512" viewBox="0 0 512 512"
    xmlns="http://www.w3.org/2000/svg">
    <path d="m256 87.7c2.5-4 4.6-7.6 6.8-11 18.5-27.9 44.1-45.4 77.3-50.4 30.5-4.5 58.9 2.3 84.4 19.6 32.1 21.7 50.1 52.5 56.3 90.3 7.9 48.5-3.7 92.6-31.2 132.9-15.6 23-34.3 43.3-54.3 62.6-25.5 24.6-51.6 48.5-76.9 73.4-24.3 23.9-45.8 50.1-61.5 80.6-.2.4-.5.7-1 1.3-.5-.6-.9-1.1-1.2-1.7-14.4-27.7-33.4-52.1-55.4-74.1-22.9-22.8-46.5-44.9-70-67.2-22.3-21.2-44.1-42.9-62.2-67.9-17.5-24.3-30.8-50.5-35.7-80.3-6.7-41-2.3-80.3 21.5-115.5 20.4-30.2 48.9-49.1 85.1-53.9 47.9-6.3 85.5 11.7 112.2 52 2.1 2.9 3.7 5.8 5.8 9.3z" fill="#635f54"/>
</svg>