<svg enable-background="new 0 0 512 512" viewBox="0 0 512 512"
    xmlns="http://www.w3.org/2000/svg">
    <path d="m255.4 70.2c6.8-6.5 12.9-13.2 19.9-18.9 18.2-15 39.4-23.4 62.9-25.7 60.7-5.9 119.2 33.1 137.5 95.8 14.8 50.6 7.1 98.5-19.5 143.6-15.9 26.9-36.7 49.8-59 71.3-22.9 22-46.3 43.5-68.9 65.6-19.1 18.7-36.7 38.8-50.6 61.8-3 4.9-5.6 10-8.3 15-2.9 5.3-7.3 8.1-13.3 8.2s-10.8-2.5-13.5-7.8c-17.6-34.8-43.8-62.8-71.6-89.4-21.7-20.7-43.8-41.1-65.2-62.1-20.8-20.5-39.5-42.8-53.7-68.5-12.4-22.5-20.3-46.4-22.5-72.2-2.3-27.8.4-55 11.9-80.7 19.7-44 53-71.9 100.9-79.6 44.4-7.2 81.9 7.3 111.5 41.5.5.9 1.1 1.6 1.5 2.1zm.5 370.6c.7-.9 1.3-1.5 1.8-2.3 17.3-26 38.7-48.5 61.1-70.1 23.1-22.2 46.7-44 69.5-66.5 16.5-16.3 31.2-34.2 42.8-54.4 20.9-36.4 27.3-75 15.9-115.7-13.2-47.3-55.9-79-102.9-76.1-19.5 1.2-36.7 8.1-51.6 20.7-9.3 7.9-16.8 17.2-22.4 28-3.1 5.9-7.6 9.6-14.3 9.6-6.9 0-11.6-3.7-14.5-9.8-.5-1-1.1-2-1.7-3-19-30.8-46.1-47.2-82.7-45.5-29.7 1.3-53.8 14.5-72.5 37.4-15.9 19.4-23.2 42.2-24.9 67.1-1.9 27.5 3.6 53.5 15.9 78 10.8 21.5 25.2 40.5 42 57.5 22 22.2 44.9 43.6 67.5 65.1 18.8 18 37.4 36.2 53.6 56.6 6 7.6 11.5 15.4 17.4 23.4z" fill="#635f54"/>
</svg>