<svg enable-background="new 0 0 512 512" viewBox="0 0 512 512"
    xmlns="http://www.w3.org/2000/svg">
    <path d="m475.7 121.4c-18.3-62.7-76.8-101.7-137.5-95.8-23.5 2.3-44.7 10.7-62.9 25.7-7 5.7-13.1 12.4-19.9 18.9-.4-.5-1-1.2-1.5-2.1-29.6-34.2-67.1-48.7-111.5-41.5-47.9 7.7-81.2 35.6-100.9 79.6-11.5 25.7-14.2 52.9-11.9 80.7 2.2 25.8 10.1 49.7 22.5 72.2 14.2 25.7 32.9 48 53.7 68.5 21.4 21 43.5 41.4 65.2 62.1 27.8 26.6 54 54.6 71.6 89.4 2.7 5.3 7.5 7.9 13.5 7.8s10.4-2.9 13.3-8.2c2.7-5 5.3-10.1 8.3-15 13.9-23 31.5-43.1 50.6-61.8 22.6-22.1 46-43.6 68.9-65.6 22.3-21.5 43.1-44.4 59-71.3 26.6-45.1 34.3-93 19.5-143.6zm-66 126.2c-10.2 17.7-23.1 33.5-37.6 47.8-20 19.8-40.7 38.9-61 58.4-19.7 19-38.5 38.7-53.7 61.6-.4.7-1 1.2-1.6 2-5.2-7-10-13.9-15.3-20.5-14.2-17.9-30.6-33.9-47.1-49.7-19.8-18.9-40-37.7-59.3-57.2-14.8-14.9-27.4-31.6-36.9-50.5-10.8-21.5-15.6-44.3-14-68.5 1.5-21.9 7.9-41.9 21.9-58.9 16.4-20.1 37.6-31.7 63.7-32.8 32.1-1.5 55.9 12.9 72.6 40 .5.9 1.1 1.8 1.5 2.6 2.5 5.4 6.7 8.6 12.7 8.6 5.9 0 9.8-3.2 12.6-8.4 4.9-9.5 11.5-17.6 19.7-24.6 13.1-11.1 28.2-17.1 45.3-18.2 41.3-2.5 78.8 25.3 90.4 66.8 10.1 35.6 4.5 69.5-13.9 101.5z" fill="#635f54"/>
</svg>