<svg enable-background="new 0 0 512 512" viewBox="0 0 512 512"
    xmlns="http://www.w3.org/2000/svg">
    <path d="m51.2 255.2c-1.8 1.4-2.7 2.2-3.7 3-6.6 5.4-15.6 4.7-21.3-1.5-5.5-6-5.5-15.1.5-21 11.4-11.3 22.9-22.4 34.4-33.5 22-21.3 44.1-42.5 66.1-63.8 35.7-34.5 71.4-69 107.1-103.5 13.6-13.1 29.6-13.1 43.2 0 28 27 55.9 54 83.9 81 38.1 36.8 76.1 73.5 114.2 110.2 3.1 3 6.2 6 9.2 9 6.3 6.4 6.7 15.4 1 21.6-5.9 6.4-15 6.8-21.9 1.1-.8-.6-1.6-1.3-3.2-2.6v5.1 197.5c0 8.4-2.4 15.7-8.3 21.8-5 5-11 7.4-18.2 7.4-118.3 0-236.6-.1-354.9.1-15.5 0-25.6-10.6-27.7-22.4-.5-2.6-.5-5.3-.5-8 0-65.5 0-131 0-196.4.1-1.4.1-2.8.1-5.1zm204.8-198.3c-8.2 8-16.1 15.7-24 23.3-29.6 28.6-59.3 57.2-89 85.8-19.5 18.9-39 37.8-58.6 56.6-1.8 1.8-2.6 3.5-2.6 6 .1 74.4.1 148.8 0 223.3 0 3.3.8 4.3 4.2 4.3 50.2-.1 100.3-.1 150.5 0 3.7 0 4.4-1.2 4.4-4.5-.1-26.2-.1-52.5 0-78.7 0-6.6 3.9-12.1 9.8-14.2 10.1-3.7 20.6 3.4 20.7 14.3.1 26.2.1 52.5 0 78.7 0 3.4.7 4.5 4.4 4.5 50-.1 100.1-.1 150.1-.1 4.5 0 4.5 0 4.5-4.6 0-47.1 0-94.3 0-141.4 0-27.2 0-54.3-.1-81.5 0-1.7-.5-3.9-1.6-5-23.6-23-47.3-45.9-71-68.8-24.9-24-49.8-48-74.7-72-9-8.6-17.8-17.1-27-26z" fill="#635f54"/>
</svg>