<svg enable-background="new 0 0 512 512" viewBox="0 0 512 512"
    xmlns="http://www.w3.org/2000/svg">
    <path d="m484.8 235.1c-3-3-6.1-6-9.2-9-38.1-36.7-76.1-73.4-114.2-110.2-28-27-55.9-54-83.9-81-13.6-13.1-29.6-13.1-43.2 0-35.7 34.5-71.4 69-107.1 103.5-22 21.3-44.1 42.5-66.1 63.8-11.5 11.1-23 22.2-34.4 33.5-6 5.9-6 15-.5 21 5.7 6.2 14.7 6.9 21.3 1.5 1-.8 1.9-1.6 3.7-3 0 2.3 0 3.7-.1 5.1v196.4c0 2.7 0 5.4.5 8 2.1 11.8 12.2 22.4 27.7 22.4 118.3-.2 236.6-.1 354.9-.1 7.2 0 13.2-2.4 18.2-7.4 5.9-6.1 8.3-13.4 8.3-21.8 0-65.8 0-131.7 0-197.5 0-1.4 0-2.8 0-5.1 1.6 1.3 2.4 2 3.2 2.6 6.9 5.7 16 5.3 21.9-1.1 5.7-6.2 5.3-15.2-1-21.6zm-73.3 207.2c0 4.1 0 4.1-4 4.1-34.3 0-89.5-.1-133.5 0-2.4 0-4.4-2-4.4-4.4v-41.6c0-7.7-6.4-13.9-14.2-13.6-7.3.3-13 6.7-13 14v41.8c0 2.1-1.7 3.9-3.9 3.9-44.8-.1-89.5-.1-134.3 0-3 0-3.7-.9-3.7-3.8.1-66.5.1-132.8 0-199.2 0-2.2.7-3.7 2.3-5.4 17.5-16.8 34.9-33.6 52.3-50.5 26.5-25.5 53-51 79.4-76.5 7-6.8 14.1-13.6 21.4-20.8h.1c8.2 7.9 16 15.5 24.1 23.2 22.2 21.4 44.4 42.8 66.6 64.2 21.1 20.4 42.3 40.9 63.3 61.4 1 1 1.4 2.9 1.4 4.5.1 24.3.1 48.4.1 72.7z" fill="#635f54"/>
</svg>