<svg enable-background="new 0 0 512 512" viewBox="0 0 512 512"
    xmlns="http://www.w3.org/2000/svg">
    <path d="m207 207.2c0-43.9-.2-85.9.1-128 .1-22.2 8-40.4 29.6-49.8 32.5-14.2 66.6 7.3 67.4 43.2.8 38.2.2 76.4.2 114.7v20.1c45.1 0 88.2-.1 131.3 0 24.2.1 43.3 13.5 49.4 34.1 9.4 32-11.8 61.6-46.1 62.9-25.9.9-51.9.3-77.9.3-18.1 0-36.1 0-56.4 0 0 13.7-.1 26.2 0 38.7.3 30.8 1.3 61.7.9 92.5-.3 19.8-8.3 36.7-26.9 45.6-16.9 8-34.3 7.4-50.2-3.8-14.4-10.1-20-24.5-20-41.8-.2-38.2-.8-76.4-1.3-114.6-.1-4.8 0-9.7 0-15.6-5.4-.4-9.7-1-14-1-39.2-.4-78.4-.7-117.6-1.1-29.4-.3-50.5-20.2-50.6-47.8-.1-26.4 22.6-48.4 50.7-48.5 42.9-.3 86-.1 131.4-.1z" fill="#635f54"/>
</svg>