<svg enable-background="new 0 0 512 512" viewBox="0 0 512 512"
    xmlns="http://www.w3.org/2000/svg">
    <g fill="#635f54">
        <path d="m487.2 256.1c-1.3 130-104.6 231.2-231.6 230.9-129.3-.3-230.7-103.9-230.8-231.6 0-127.4 104.3-230.8 231.4-230.4 125.6.4 229.8 100.5 231 231.1zm-230.7-191.2c-102 0-186.4 79.3-191.4 181.4-5.3 109 79 196.5 183 200.6 107.4 4.2 193.5-78.9 198.6-181.2 5.4-109.3-80.9-200-190.2-200.8z"/>
        <path d="m256.4 111.5c81.3-.1 145.8 67.9 144.2 147.7-1.5 75.9-65.5 144.2-150 141.3-77.2-2.6-140.7-68-139.2-147.7 1.3-77.6 65.7-141.4 145-141.3z"/>
    </g>
</svg>