<svg enable-background="new 0 0 512 512" viewBox="0 0 512 512"
    xmlns="http://www.w3.org/2000/svg">
    <path d="m362.7 322.8c11.5 11.4 22.9 22.7 34.2 34l81 81c7.9 7.9 11.1 17.4 8.1 28.3-2.8 10.4-9.7 17.1-20 19.8-10.8 2.9-20.2-.3-28-8.2-19.4-19.3-38.7-38.7-58-58-18.1-18.1-36.1-36.1-54.2-54.2-.9-.9-1.7-2.1-2.5-3.1-51.7 35.6-107.2 45.7-166.9 27.7-42.7-12.9-76.6-38.7-100.8-76.1-51.1-79.1-37.2-180.1 32.8-242.5 67.5-60.3 170.5-62 241.6-4.7 69.6 55.9 96.6 167.2 32.7 256zm-150.5-241.6c-72.3 0-131.1 58.6-130.8 130.9.2 71.7 57.9 130.3 130.7 130.3 72 0 130.2-57.9 130.4-130.1.2-72.8-58.4-130.7-130.3-131.1z" fill="#635f54"/>
</svg>