<svg enable-background="new 0 0 512 512" viewBox="0 0 512 512"
    xmlns="http://www.w3.org/2000/svg">
    <g fill="#635f54">
        <path d="m256.1 451.7c-69.1 0-138.3 0-207.4 0-16.9 0-23.6-6.7-23.6-23.6 0-58.7 0-117.3 0-176 0-10.2 5.4-17.5 14.2-19.6 9.4-2.3 18.3 1.1 22.3 9.6 1.7 3.6 2.2 8.2 2.2 12.3.1 49.3.3 98.6-.1 147.9-.1 8.5 2.2 10.9 10.9 10.9 121-.3 242-.3 363 0 8.5 0 11.1-2 11-10.8-.4-50.2-.2-100.3-.2-150.5 0-10.9 6.1-18.3 16-19.8 10.2-1.6 18.9 3.5 21.8 13.2.9 2.9.9 6.1.9 9.2v174.3c0 15.8-7 22.9-22.7 22.9-69.5 0-138.9 0-208.3 0z"/>
        <path d="m230.1 128.7c-2.4 2.2-4.8 4.4-7.1 6.6-21.8 21.8-43.6 43.7-65.5 65.5-6.5 6.5-16.2 8.2-23.4 4.2-7.6-4.3-11.8-11-10.2-19.7.8-4.4 3.3-9.2 6.5-12.4 34.8-35.3 69.9-70.3 105-105.3 9.9-9.9 20.7-9.7 30.6.1 34.9 34.8 69.8 69.6 104.6 104.5 9.5 9.5 10 20.9 1.7 29.3-7.8 7.9-20.3 7.3-29.5-1.7-21.4-21.1-42.5-42.4-63.8-63.6-1.9-1.9-4-3.7-8.1-7.5v12 169.2c0 16.8-15.1 26.4-29 18.6-7.5-4.2-9.8-10.9-9.7-19.3.1-56.7.1-113.3.1-170 0-3.2 0-6.5 0-9.7-.8-.3-1.5-.5-2.2-.8z"/>
    </g>
</svg>