<svg enable-background="new 0 0 512 512" viewBox="0 0 512 512"
    xmlns="http://www.w3.org/2000/svg">
    <g fill="#635f54">
        <path d="m256 487c-61.2 0-122.3.1-183.5-.1-5.8 0-12-.7-17.3-2.7-15.2-5.8-23.1-21-21-38.6 2.8-23.4 8.8-45.9 18.8-67.2 21.7-46.6 55.4-82 101-105.6 7.4-3.8 15.2-7.6 23.2-9.3 20.9-4.2 38.3 2.9 52.1 19.1 7.7 9.1 15.3 18.3 23 27.5 3.2 3.9 4.4 3.8 7.7-.1 8.6-10.2 17-20.6 25.9-30.6 15-16.7 39.5-22 60-12.6 69.5 32.1 112.6 85.7 129.2 160.4 2.1 9.3 3.1 18.9 3 28.4-.2 15.9-15 30.3-30.9 31.1-3.8.2-7.6.3-11.3.3-60 0-120 0-179.9 0zm.2-31.4h175.7c3.5 0 7.1.1 10.6 0 3.6-.1 5.2-1.7 4.5-5.1-2.2-11.3-3.6-22.9-7-33.9-17.1-55.6-52.5-95.6-105.1-120.4-10.6-5-20.1-2.7-27.6 6.3-7.8 9.3-15.7 18.7-23.4 28-15.3 18.5-40.2 18.4-55.5-.1-7.8-9.5-15.7-18.9-23.7-28.3-7.1-8.4-16.7-10.7-26.8-6.2-22 9.9-41.7 23.3-58.5 40.6-30.3 31.3-48.6 68.5-53.8 112-.8 6.4-.1 7.2 6.4 7.2 61.4-.1 122.8-.1 184.2-.1z"/>
        <path d="m348.3 131.6c-1.2 12.3-1.1 24.9-3.8 36.9-8.1 35.4-38.4 62.9-73.6 68.1-44.5 6.7-85.8-18.7-100.5-61.7-3.6-10.5-5.5-21.2-5.4-32.3.1-10.1-.4-20.1.4-30.1 2.3-29.4 15.2-53.6 39.2-70.8 53.3-38 128.4-7.7 141 56.6.5 2.4 1.2 4.9 1.2 7.3.2 8.6 1.5 17.4 1.5 26zm-31.5 0c0-8.1-.6-16.5-1.7-24.5-4.8-33.6-37-55.7-69.5-49.7-25.9 4.8-45.1 27.5-48.3 53-1.3 10.3-.6 20.8-.9 31.2s2.1 20.1 6.4 29.5c10.3 22.7 34.1 37.3 57.4 35.2 26.2-2.3 47.6-19.5 53.5-44.5 2.4-9.8 2.2-20.2 3.1-30.2z"/>
    </g>
</svg>