<svg enable-background="new 0 0 512 512" viewBox="0 0 512 512"
    xmlns="http://www.w3.org/2000/svg">
    <g fill="#635f54">
        <path d="m475.1 427.2c-16.6-74.7-59.7-128.3-129.2-160.4-20.5-9.4-45-4.1-60 12.6-8.9 10-17.3 20.4-25.9 30.6-3.3 3.9-4.5 4-7.7.1-7.7-9.2-15.3-18.4-23-27.5-13.8-16.2-31.2-23.3-52.1-19.1-8 1.7-15.8 5.5-23.2 9.3-45.6 23.6-79.3 59-101 105.6-10 21.3-16 43.8-18.8 67.2-2.1 17.6 5.8 32.8 21 38.6 5.3 2 11.5 2.7 17.3 2.7 61.2.2 122.3.1 183.5.1h179.9c3.7 0 7.5-.1 11.3-.3 15.9-.8 30.7-15.2 30.9-31.1.1-9.5-.9-19.1-3-28.4zm-70.5 17.9c-2.8.1-5.7 0-8.4 0-46.7 0-93.3 0-139.9 0-48.9 0-97.8 0-146.7.1-5.2 0-5.7-.6-5.1-5.7 4.1-34.6 18.7-64.3 42.9-89.2 13.4-13.8 29.1-24.5 46.6-32.3 8-3.6 15.7-1.8 21.3 4.9 6.4 7.5 12.7 15 18.9 22.5 12.2 14.7 32 14.8 44.2.1 6.1-7.4 12.4-14.9 18.6-22.3 6-7.2 13.5-9 22-5 41.9 19.8 70.1 51.6 83.7 95.9 2.7 8.8 3.8 18 5.6 27 .4 2.7-.8 3.9-3.7 4z"/>
        <path d="m346.8 105.6c0-2.4-.7-4.9-1.2-7.3-12.6-64.3-87.7-94.6-141-56.6-24 17.2-36.9 41.4-39.2 70.8-.8 10-.3 20-.4 30.1-.1 11.1 1.8 21.8 5.4 32.3 14.7 43 56 68.4 100.5 61.7 35.2-5.2 65.5-32.7 73.6-68.1 2.7-12 2.6-24.6 3.8-36.9 0-8.6-1.3-17.4-1.5-26zm-42.7 51.1c-4.9 20.8-22.7 35.1-44.5 37-19.4 1.7-39.2-10.4-47.8-29.3-3.6-7.8-5.6-15.9-5.3-24.6.2-8.7-.3-17.4.7-26 2.7-21.2 18.6-40.1 40.2-44.1 27.1-5 53.9 13.4 57.8 41.4.9 6.7 1.4 13.7 1.4 20.4-.6 8.4-.5 17.1-2.5 25.2z"/>
    </g>
</svg>