<svg enable-background="new 0 0 512 512" viewBox="0 0 512 512"
    xmlns="http://www.w3.org/2000/svg">
    <g fill="#635f54">
        <path d="m25 256.1c-.1-127.7 103.8-232 232.8-231.1 126.4.9 230 103.9 229.2 232.5-.7 126.8-104.3 230.8-233.5 229.5-125.8-1.3-228.4-103.6-228.5-230.9zm87.4 145.8c.5-.7 1-1.4 1.4-2.2 18.7-31 44.6-53.8 77.7-68.3 14.7-6.4 33-3 44 8.6 7.2 7.5 13.6 15.8 20.4 23.7 2.5 2.9 2.5 3 4.9.1 5.8-6.9 11.6-13.9 17.5-20.8 12.1-14.2 31.2-18.7 48.2-11.1 30 13.3 54 33.7 72.3 61 1.3 2 2.6 4 4 6 52.8-53 75.1-138.2 44.2-217.6-30.4-78.3-111-138.3-210.1-129.5-82.4 7.3-155.3 65.2-178.6 149.5-22.2 80.2 7.6 157.3 54.1 200.6zm20.1 17.6c.7.6 1.1 1.1 1.7 1.5 6.7 4.4 13.2 9.1 20.1 13 33.3 19 69.2 28 107.6 26.9 19.9-.5 39.2-3.9 58.1-10 22-7.2 42-17.9 60.4-31.8 1.4-1.1 3.1-1.8 1.6-4.3-15.8-26.7-37.6-46.4-65.9-59.1-6.8-3-13.3-1.4-18.1 4.4-6 7.1-11.9 14.2-17.8 21.3-12 14.5-31.5 14.4-43.4-.1-5.9-7.2-11.8-14.2-17.8-21.3-5-5.9-11.3-7.3-18.4-4.1-16.5 7.4-31 17.5-43.6 30.3-9.8 9.8-17.9 20.8-24.5 33.3z"/>
        <path d="m327.9 231.8c.2 10.6.6 21.3-3 31.5-9.3 26.9-27.7 43.6-56 48.2-38.7 6.2-69.6-20.3-77.6-53.7-1.4-5.9-2.1-12.1-2.1-18.2 0-10.3-.1-20.7 1.5-30.8 4.5-27.9 26.5-50.8 54.4-56.4 37.8-7.7 74.7 17.3 81.6 55.3.7 4 1 8.1 1.2 12.2.1 3.9 0 7.9 0 11.9zm-25.4.8c-.5-7.6-.3-14.4-1.4-21-3.7-21.6-25.8-37.5-47.5-34.6-21.1 2.8-35.4 20.1-37.9 38.9-1 7.8-.6 15.7-.7 23.6-.1 6.9 1.4 13.5 4.1 19.9 7.5 17.6 24.7 28.5 42.5 27 19.2-1.6 35-14.7 39.2-33.5 1.4-6.8 1.2-14.1 1.7-20.3z"/>
    </g>
</svg>